<svg xmlns="http://www.w3.org/2000/svg" xmlns:xlink="http://www.w3.org/1999/xlink" width="500" zoomAndPan="magnify" viewBox="0 0 375 374.999991" height="500" preserveAspectRatio="xMidYMid meet" version="1.0"><defs><clipPath id="4d50a5c2b3"><path d="M 151 261 L 168 261 L 168 277.480469 L 151 277.480469 Z M 151 261 " clip-rule="nonzero"/></clipPath><clipPath id="9ed53df117"><path d="M 79.632812 97.480469 L 295.632812 97.480469 L 295.632812 277.480469 L 79.632812 277.480469 Z M 79.632812 97.480469 " clip-rule="nonzero"/></clipPath></defs><rect x="-37.5" width="450" fill="#ffffff" y="-37.499999" height="449.999989" fill-opacity="1"/><rect x="-37.5" width="450" fill="#ffffff" y="-37.499999" height="449.999989" fill-opacity="1"/><path fill="#ff914d" d="M 135.78125 162.636719 L 155.757812 162.636719 L 155.757812 182.617188 L 135.78125 182.617188 Z M 135.78125 162.636719 " fill-opacity="1" fill-rule="evenodd"/><path fill="#004aad" d="M 189.644531 146.945312 L 205.691406 146.945312 L 205.691406 163.003906 L 189.644531 163.003906 Z M 189.644531 146.945312 " fill-opacity="1" fill-rule="evenodd"/><path fill="#ff914d" d="M 158.613281 185.996094 L 174.660156 185.996094 L 174.660156 202.046875 L 158.613281 202.046875 Z M 158.613281 185.996094 " fill-opacity="1" fill-rule="evenodd"/><path fill="#004aad" d="M 138.460938 203.476562 L 146.484375 203.476562 L 146.484375 211.503906 L 138.460938 211.503906 Z M 138.460938 203.476562 " fill-opacity="1" fill-rule="evenodd"/><path fill="#004aad" d="M 132.121094 141.15625 L 140.160156 141.15625 L 140.160156 149.179688 L 132.121094 149.179688 Z M 132.121094 141.15625 " fill-opacity="1" fill-rule="evenodd"/><path fill="#004aad" d="M 171.359375 163.621094 L 179.382812 163.621094 L 179.382812 171.644531 L 171.359375 171.644531 Z M 171.359375 163.621094 " fill-opacity="1" fill-rule="evenodd"/><path fill="#004aad" d="M 214.164062 140.167969 L 222.1875 140.167969 L 222.1875 148.191406 L 214.164062 148.191406 Z M 214.164062 140.167969 " fill-opacity="1" fill-rule="evenodd"/><path fill="#004aad" d="M 207.546875 125.1875 L 218.816406 125.1875 L 218.816406 136.464844 L 207.546875 136.464844 Z M 207.546875 125.1875 " fill-opacity="1" fill-rule="evenodd"/><path fill="#004aad" d="M 166.808594 108.429688 L 178.089844 108.429688 L 178.089844 119.695312 L 166.808594 119.695312 Z M 166.808594 108.429688 " fill-opacity="1" fill-rule="evenodd"/><path fill="#004aad" d="M 194.136719 120.867188 L 202.160156 120.867188 L 202.160156 128.890625 L 194.136719 128.890625 Z M 194.136719 120.867188 " fill-opacity="1" fill-rule="evenodd"/><path fill="#004aad" d="M 234.851562 145.429688 L 242.875 145.429688 L 242.875 153.453125 L 234.851562 153.453125 Z M 234.851562 145.429688 " fill-opacity="1" fill-rule="evenodd"/><path fill="#ff914d" d="M 189.539062 170.683594 L 210.058594 170.683594 L 210.058594 191.203125 L 189.539062 191.203125 Z M 189.539062 170.683594 " fill-opacity="1" fill-rule="evenodd"/><path fill="#ff914d" d="M 146.644531 223.195312 L 170.191406 223.195312 L 170.191406 246.738281 L 146.644531 246.738281 Z M 146.644531 223.195312 " fill-opacity="1" fill-rule="evenodd"/><path fill="#004aad" d="M 176.164062 207.972656 L 192.210938 207.972656 L 192.210938 224.03125 L 176.164062 224.03125 Z M 176.164062 207.972656 " fill-opacity="1" fill-rule="evenodd"/><path fill="#ff914d" d="M 201.449219 228.890625 L 217.496094 228.890625 L 217.496094 244.9375 L 201.449219 244.9375 Z M 201.449219 228.890625 " fill-opacity="1" fill-rule="evenodd"/><g clip-path="url(#4d50a5c2b3)"><path fill="#004aad" d="M 151.851562 261.46875 L 167.898438 261.46875 L 167.898438 277.515625 L 151.851562 277.515625 Z M 151.851562 261.46875 " fill-opacity="1" fill-rule="evenodd"/></g><path fill="#004aad" d="M 213.613281 163.726562 L 229.660156 163.726562 L 229.660156 179.773438 L 213.613281 179.773438 Z M 213.613281 163.726562 " fill-opacity="1" fill-rule="evenodd"/><path fill="#004aad" d="M 158.292969 207.125 L 166.316406 207.125 L 166.316406 215.148438 L 158.292969 215.148438 Z M 158.292969 207.125 " fill-opacity="1" fill-rule="evenodd"/><path fill="#004aad" d="M 185.480469 195.363281 L 193.507812 195.363281 L 193.507812 203.386719 L 185.480469 203.386719 Z M 185.480469 195.363281 " fill-opacity="1" fill-rule="evenodd"/><path fill="#004aad" d="M 178.570312 235.082031 L 192.945312 235.082031 L 192.945312 249.445312 L 178.570312 249.445312 Z M 178.570312 235.082031 " fill-opacity="1" fill-rule="evenodd"/><path fill="#004aad" d="M 173.949219 263.875 L 183.464844 263.875 L 183.464844 273.378906 L 173.949219 273.378906 Z M 173.949219 263.875 " fill-opacity="1" fill-rule="evenodd"/><path fill="#004aad" d="M 197.542969 202.984375 L 211.902344 202.984375 L 211.902344 217.347656 L 197.542969 217.347656 Z M 197.542969 202.984375 " fill-opacity="1" fill-rule="evenodd"/><path fill="#004aad" d="M 215.527344 189.367188 L 229.902344 189.367188 L 229.902344 203.730469 L 215.527344 203.730469 Z M 215.527344 189.367188 " fill-opacity="1" fill-rule="evenodd"/><path fill="#ff914d" d="M 155.402344 129.117188 L 178.9375 129.117188 L 178.9375 152.652344 L 155.402344 152.652344 Z M 155.402344 129.117188 " fill-opacity="1" fill-rule="evenodd"/><g clip-path="url(#9ed53df117)"><path fill="#004aad" d="M 79.976562 179.808594 C 84.769531 179.679688 88.703125 178.398438 91.738281 175.910156 C 94.742188 173.445312 96.761719 170.0625 97.78125 165.777344 C 98.777344 161.46875 99.28125 154.074219 99.351562 143.652344 C 99.40625 133.234375 99.601562 126.355469 99.921875 123.066406 C 100.496094 117.828125 101.515625 113.597656 103.054688 110.410156 C 104.589844 107.246094 106.480469 104.691406 108.714844 102.765625 C 110.984375 100.875 113.863281 99.40625 117.347656 98.421875 C 119.707031 97.8125 123.582031 97.492188 128.949219 97.492188 L 134.1875 97.492188 L 134.1875 112.199219 L 131.273438 112.199219 C 124.785156 112.199219 120.5 113.347656 118.355469 115.71875 C 116.246094 118.058594 115.191406 123.261719 115.191406 131.386719 C 115.191406 147.757812 114.835938 158.085938 114.136719 162.40625 C 113.027344 169.089844 111.101562 174.238281 108.382812 177.847656 C 105.667969 181.492188 101.414062 184.691406 95.589844 187.5 C 102.46875 190.375 107.453125 194.753906 110.550781 200.667969 C 113.621094 206.550781 115.179688 216.234375 115.179688 229.671875 C 115.179688 241.820312 115.273438 249.078125 115.535156 251.382812 C 116.050781 255.632812 117.289062 258.613281 119.34375 260.300781 C 121.359375 261.960938 125.347656 262.820312 131.261719 262.820312 L 134.175781 262.820312 L 134.175781 277.527344 L 128.9375 277.527344 C 122.828125 277.527344 118.390625 277.023438 115.640625 276.027344 C 111.640625 274.59375 108.347656 272.253906 105.722656 269.058594 C 103.097656 265.824219 101.378906 261.765625 100.613281 256.816406 C 99.84375 251.886719 99.398438 243.804688 99.328125 232.546875 C 99.257812 221.324219 98.753906 213.554688 97.757812 209.242188 C 96.738281 204.921875 94.71875 201.539062 91.714844 199.042969 C 88.679688 196.519531 84.746094 195.203125 79.957031 195.109375 L 79.957031 179.832031 Z M 295.019531 179.808594 L 295.019531 195.085938 C 290.230469 195.179688 286.296875 196.496094 283.261719 199.019531 C 280.257812 201.519531 278.238281 204.898438 277.21875 209.152344 C 276.234375 213.4375 275.683594 220.785156 275.648438 231.207031 C 275.582031 241.660156 275.398438 248.503906 275.074219 251.828125 C 274.503906 257.136719 273.472656 261.355469 271.945312 264.519531 C 270.410156 267.679688 268.53125 270.203125 266.285156 272.09375 C 264.015625 274.007812 261.136719 275.453125 257.652344 276.4375 C 255.289062 277.136719 251.417969 277.492188 246.050781 277.492188 L 240.800781 277.492188 L 240.800781 262.785156 L 243.714844 262.785156 C 250.203125 262.785156 254.488281 261.605469 256.632812 259.269531 C 258.742188 256.929688 259.796875 251.65625 259.796875 243.472656 C 259.796875 227.871094 260.082031 217.957031 260.65625 213.773438 C 261.652344 206.871094 263.660156 201.300781 266.640625 197.152344 C 269.640625 193.023438 273.894531 189.792969 279.398438 187.464844 C 272.199219 184.046875 267.15625 179.507812 264.210938 173.847656 C 261.261719 168.183594 259.796875 158.660156 259.796875 145.234375 C 259.796875 133.050781 259.667969 125.792969 259.347656 123.398438 C 258.902344 119.203125 257.6875 116.304688 255.636719 114.640625 C 253.617188 113.011719 249.628906 112.175781 243.714844 112.175781 L 240.800781 112.175781 L 240.800781 97.46875 L 246.050781 97.46875 C 252.160156 97.46875 256.597656 97.953125 259.347656 98.972656 C 263.347656 100.347656 266.640625 102.652344 269.265625 105.871094 C 271.890625 109.128906 273.609375 113.21875 274.375 118.148438 C 275.144531 123.113281 275.589844 131.195312 275.660156 142.414062 C 275.695312 153.671875 276.234375 161.410156 277.230469 165.695312 C 278.25 169.984375 280.269531 173.367188 283.273438 175.863281 C 286.308594 178.363281 290.242188 179.667969 295.03125 179.796875 Z M 295.019531 179.808594 " fill-opacity="1" fill-rule="nonzero"/></g></svg>