<svg xmlns="http://www.w3.org/2000/svg" xmlns:xlink="http://www.w3.org/1999/xlink" zoomAndPan="magnify" viewBox="0 0 350 350"  preserveAspectRatio="xMidYMid meet" version="1.0"><defs><g/><clipPath id="35e80dfc04"><path d="M 168 194 L 178 194 L 178 203.542969 L 168 203.542969 Z M 168 194 " clip-rule="nonzero"/></clipPath><clipPath id="9a80948506"><path d="M 131.050781 109.042969 L 244 109.042969 L 244 203.542969 L 131.050781 203.542969 Z M 131.050781 109.042969 " clip-rule="nonzero"/></clipPath></defs><path fill="#ff914d" d="M 160.429688 143.136719 L 170.886719 143.136719 L 170.886719 153.589844 L 160.429688 153.589844 Z M 160.429688 143.136719 " fill-opacity="1" fill-rule="evenodd"/><path fill="#004aad" d="M 188.617188 134.925781 L 197.011719 134.925781 L 197.011719 143.328125 L 188.617188 143.328125 Z M 188.617188 134.925781 " fill-opacity="1" fill-rule="evenodd"/><path fill="#ff914d" d="M 172.378906 155.359375 L 180.777344 155.359375 L 180.777344 163.757812 L 172.378906 163.757812 Z M 172.378906 155.359375 " fill-opacity="1" fill-rule="evenodd"/><path fill="#004aad" d="M 161.835938 164.507812 L 166.03125 164.507812 L 166.03125 168.707031 L 161.835938 168.707031 Z M 161.835938 164.507812 " fill-opacity="1" fill-rule="evenodd"/><path fill="#004aad" d="M 158.515625 131.894531 L 162.722656 131.894531 L 162.722656 136.09375 L 158.515625 136.09375 Z M 158.515625 131.894531 " fill-opacity="1" fill-rule="evenodd"/><path fill="#004aad" d="M 179.050781 143.652344 L 183.246094 143.652344 L 183.246094 147.851562 L 179.050781 147.851562 Z M 179.050781 143.652344 " fill-opacity="1" fill-rule="evenodd"/><path fill="#004aad" d="M 201.445312 131.378906 L 205.644531 131.378906 L 205.644531 135.578125 L 201.445312 135.578125 Z M 201.445312 131.378906 " fill-opacity="1" fill-rule="evenodd"/><path fill="#004aad" d="M 197.984375 123.539062 L 203.882812 123.539062 L 203.882812 129.441406 L 197.984375 129.441406 Z M 197.984375 123.539062 " fill-opacity="1" fill-rule="evenodd"/><path fill="#004aad" d="M 176.667969 114.769531 L 182.570312 114.769531 L 182.570312 120.667969 L 176.667969 120.667969 Z M 176.667969 114.769531 " fill-opacity="1" fill-rule="evenodd"/><path fill="#004aad" d="M 190.96875 121.277344 L 195.167969 121.277344 L 195.167969 125.476562 L 190.96875 125.476562 Z M 190.96875 121.277344 " fill-opacity="1" fill-rule="evenodd"/><path fill="#004aad" d="M 212.273438 134.132812 L 216.472656 134.132812 L 216.472656 138.332031 L 212.273438 138.332031 Z M 212.273438 134.132812 " fill-opacity="1" fill-rule="evenodd"/><path fill="#ff914d" d="M 188.5625 147.347656 L 199.300781 147.347656 L 199.300781 158.082031 L 188.5625 158.082031 Z M 188.5625 147.347656 " fill-opacity="1" fill-rule="evenodd"/><path fill="#ff914d" d="M 166.117188 174.824219 L 178.4375 174.824219 L 178.4375 187.144531 L 166.117188 187.144531 Z M 166.117188 174.824219 " fill-opacity="1" fill-rule="evenodd"/><path fill="#004aad" d="M 181.5625 166.859375 L 189.960938 166.859375 L 189.960938 175.261719 L 181.5625 175.261719 Z M 181.5625 166.859375 " fill-opacity="1" fill-rule="evenodd"/><path fill="#ff914d" d="M 194.792969 177.804688 L 203.191406 177.804688 L 203.191406 186.203125 L 194.792969 186.203125 Z M 194.792969 177.804688 " fill-opacity="1" fill-rule="evenodd"/><g clip-path="url(#35e80dfc04)"><path fill="#004aad" d="M 168.839844 194.851562 L 177.238281 194.851562 L 177.238281 203.25 L 168.839844 203.25 Z M 168.839844 194.851562 " fill-opacity="1" fill-rule="evenodd"/></g><path fill="#004aad" d="M 201.160156 143.707031 L 209.554688 143.707031 L 209.554688 152.101562 L 201.160156 152.101562 Z M 201.160156 143.707031 " fill-opacity="1" fill-rule="evenodd"/><path fill="#004aad" d="M 172.210938 166.414062 L 176.410156 166.414062 L 176.410156 170.613281 L 172.210938 170.613281 Z M 172.210938 166.414062 " fill-opacity="1" fill-rule="evenodd"/><path fill="#004aad" d="M 186.4375 160.261719 L 190.636719 160.261719 L 190.636719 164.457031 L 186.4375 164.457031 Z M 186.4375 160.261719 " fill-opacity="1" fill-rule="evenodd"/><path fill="#004aad" d="M 182.820312 181.042969 L 190.34375 181.042969 L 190.34375 188.558594 L 182.820312 188.558594 Z M 182.820312 181.042969 " fill-opacity="1" fill-rule="evenodd"/><path fill="#004aad" d="M 180.40625 196.109375 L 185.382812 196.109375 L 185.382812 201.082031 L 180.40625 201.082031 Z M 180.40625 196.109375 " fill-opacity="1" fill-rule="evenodd"/><path fill="#004aad" d="M 192.75 164.25 L 200.265625 164.25 L 200.265625 171.765625 L 192.75 171.765625 Z M 192.75 164.25 " fill-opacity="1" fill-rule="evenodd"/><path fill="#004aad" d="M 202.160156 157.125 L 209.683594 157.125 L 209.683594 164.640625 L 202.160156 164.640625 Z M 202.160156 157.125 " fill-opacity="1" fill-rule="evenodd"/><path fill="#ff914d" d="M 170.699219 125.597656 L 183.015625 125.597656 L 183.015625 137.910156 L 170.699219 137.910156 Z M 170.699219 125.597656 " fill-opacity="1" fill-rule="evenodd"/><g clip-path="url(#9a80948506)"><path fill="#004aad" d="M 131.230469 152.121094 C 133.738281 152.054688 135.796875 151.382812 137.386719 150.082031 C 138.957031 148.792969 140.011719 147.023438 140.546875 144.777344 C 141.070312 142.523438 141.332031 138.65625 141.367188 133.203125 C 141.398438 127.75 141.5 124.152344 141.667969 122.429688 C 141.96875 119.6875 142.503906 117.476562 143.304688 115.808594 C 144.109375 114.152344 145.097656 112.816406 146.269531 111.808594 C 147.457031 110.816406 148.960938 110.050781 150.785156 109.535156 C 152.019531 109.214844 154.046875 109.046875 156.855469 109.046875 L 159.597656 109.046875 L 159.597656 116.742188 L 158.074219 116.742188 C 154.679688 116.742188 152.433594 117.34375 151.3125 118.585938 C 150.210938 119.808594 149.65625 122.53125 149.65625 126.785156 C 149.65625 135.351562 149.472656 140.753906 149.105469 143.015625 C 148.523438 146.511719 147.515625 149.207031 146.09375 151.09375 C 144.671875 153.003906 142.449219 154.675781 139.402344 156.144531 C 143 157.652344 145.609375 159.941406 147.230469 163.039062 C 148.835938 166.113281 149.652344 171.183594 149.652344 178.210938 C 149.652344 184.570312 149.699219 188.367188 149.839844 189.574219 C 150.109375 191.796875 150.753906 193.359375 151.828125 194.238281 C 152.886719 195.109375 154.972656 195.558594 158.066406 195.558594 L 159.589844 195.558594 L 159.589844 203.253906 L 156.851562 203.253906 C 153.652344 203.253906 151.332031 202.992188 149.890625 202.46875 C 147.796875 201.71875 146.078125 200.496094 144.703125 198.824219 C 143.328125 197.128906 142.429688 195.007812 142.027344 192.417969 C 141.625 189.835938 141.394531 185.609375 141.355469 179.71875 C 141.320312 173.847656 141.058594 169.777344 140.535156 167.523438 C 140 165.261719 138.945312 163.492188 137.375 162.1875 C 135.785156 160.867188 133.726562 160.175781 131.21875 160.128906 L 131.21875 152.132812 Z M 243.757812 152.121094 L 243.757812 160.117188 C 241.25 160.164062 239.191406 160.855469 237.601562 162.171875 C 236.03125 163.480469 234.976562 165.25 234.441406 167.476562 C 233.925781 169.71875 233.636719 173.5625 233.621094 179.015625 C 233.585938 184.488281 233.488281 188.066406 233.320312 189.808594 C 233.019531 192.585938 232.480469 194.792969 231.683594 196.445312 C 230.878906 198.101562 229.894531 199.421875 228.71875 200.410156 C 227.53125 201.414062 226.027344 202.167969 224.203125 202.683594 C 222.96875 203.050781 220.941406 203.238281 218.132812 203.238281 L 215.386719 203.238281 L 215.386719 195.542969 L 216.910156 195.542969 C 220.304688 195.542969 222.546875 194.921875 223.667969 193.699219 C 224.773438 192.476562 225.324219 189.71875 225.324219 185.433594 C 225.324219 177.269531 225.476562 172.082031 225.773438 169.894531 C 226.296875 166.28125 227.347656 163.367188 228.90625 161.195312 C 230.476562 159.035156 232.703125 157.34375 235.582031 156.128906 C 231.816406 154.339844 229.175781 151.964844 227.632812 149 C 226.09375 146.039062 225.324219 141.054688 225.324219 134.03125 C 225.324219 127.652344 225.257812 123.855469 225.089844 122.605469 C 224.855469 120.410156 224.222656 118.890625 223.148438 118.019531 C 222.09375 117.167969 220.003906 116.730469 216.910156 116.730469 L 215.386719 116.730469 L 215.386719 109.035156 L 218.132812 109.035156 C 221.332031 109.035156 223.652344 109.289062 225.089844 109.820312 C 227.183594 110.542969 228.90625 111.746094 230.28125 113.433594 C 231.652344 115.136719 232.550781 117.277344 232.953125 119.855469 C 233.355469 122.453125 233.589844 126.683594 233.625 132.554688 C 233.644531 138.445312 233.925781 142.492188 234.449219 144.738281 C 234.980469 146.980469 236.039062 148.75 237.609375 150.058594 C 239.199219 151.363281 241.257812 152.046875 243.761719 152.113281 Z M 243.757812 152.121094 " fill-opacity="1" fill-rule="nonzero"/></g><g fill="#004aad" fill-opacity="1"><g transform="translate(71.735848, 231.885717)"><g><path d="M 7.46875 0 C 6.9375 0 6.179688 0.0078125 5.203125 0.03125 C 4.222656 0.0625 3.3125 0.0859375 2.46875 0.109375 L 2.46875 -0.71875 L 3.296875 -1.203125 C 3.679688 -1.410156 3.921875 -1.585938 4.015625 -1.734375 C 4.234375 -2.078125 4.34375 -2.660156 4.34375 -3.484375 L 4.34375 -20.078125 C 4.34375 -21.035156 4.304688 -21.703125 4.234375 -22.078125 C 4.160156 -22.453125 4.066406 -22.703125 3.953125 -22.828125 C 3.847656 -22.921875 3.707031 -23.003906 3.53125 -23.078125 C 3.351562 -23.148438 3.046875 -23.195312 2.609375 -23.21875 L 1.265625 -23.328125 L 1.265625 -24.671875 C 2.359375 -24.648438 3.367188 -24.625 4.296875 -24.59375 C 5.222656 -24.570312 6.207031 -24.5625 7.25 -24.5625 C 8.332031 -24.5625 9.703125 -24.578125 11.359375 -24.609375 C 13.015625 -24.648438 14.628906 -24.671875 16.203125 -24.671875 C 20.378906 -24.671875 23.46875 -23.738281 25.46875 -21.875 C 27.476562 -20.019531 28.484375 -17.1875 28.484375 -13.375 C 28.484375 -11.269531 28.085938 -9.382812 27.296875 -7.71875 C 26.515625 -6.050781 25.441406 -4.632812 24.078125 -3.46875 C 22.710938 -2.3125 21.132812 -1.425781 19.34375 -0.8125 C 17.5625 -0.195312 15.664062 0.109375 13.65625 0.109375 C 13.5625 0.109375 13.171875 0.09375 12.484375 0.0625 C 11.796875 0.0390625 10.992188 0.0234375 10.078125 0.015625 C 9.160156 0.00390625 8.289062 0 7.46875 0 Z M 9.453125 -22.71875 L 9.453125 -2.0625 C 9.742188 -2.019531 10.140625 -1.976562 10.640625 -1.9375 C 11.148438 -1.90625 11.796875 -1.890625 12.578125 -1.890625 C 15.929688 -1.890625 18.515625 -2.722656 20.328125 -4.390625 C 22.140625 -6.054688 23.046875 -8.820312 23.046875 -12.6875 C 23.046875 -15.289062 22.625 -17.328125 21.78125 -18.796875 C 20.9375 -20.273438 19.671875 -21.320312 17.984375 -21.9375 C 16.304688 -22.550781 14.210938 -22.859375 11.703125 -22.859375 C 11.316406 -22.859375 10.9375 -22.847656 10.5625 -22.828125 C 10.1875 -22.804688 9.816406 -22.769531 9.453125 -22.71875 Z M 9.453125 -22.71875 "/></g></g></g><g fill="#004aad" fill-opacity="1"><g transform="translate(103.332595, 231.885717)"><g><path d="M 5.875 -25.578125 C 6.644531 -25.578125 7.289062 -25.316406 7.8125 -24.796875 C 8.332031 -24.273438 8.59375 -23.617188 8.59375 -22.828125 C 8.59375 -22.078125 8.316406 -21.441406 7.765625 -20.921875 C 7.222656 -20.398438 6.59375 -20.140625 5.875 -20.140625 C 5.144531 -20.140625 4.507812 -20.398438 3.96875 -20.921875 C 3.425781 -21.441406 3.15625 -22.078125 3.15625 -22.828125 C 3.15625 -23.617188 3.410156 -24.273438 3.921875 -24.796875 C 4.441406 -25.316406 5.09375 -25.578125 5.875 -25.578125 Z M 7.859375 -17.0625 L 8.21875 -16.84375 L 8.21875 -3.59375 C 8.21875 -3.175781 8.234375 -2.789062 8.265625 -2.4375 C 8.304688 -2.09375 8.378906 -1.847656 8.484375 -1.703125 C 8.628906 -1.460938 8.988281 -1.328125 9.5625 -1.296875 L 10.796875 -1.234375 L 10.796875 0.109375 C 10.429688 0.0859375 9.953125 0.0664062 9.359375 0.046875 C 8.773438 0.0351562 8.171875 0.0234375 7.546875 0.015625 C 6.929688 0.00390625 6.394531 0 5.9375 0 C 5.601562 0 5.175781 0.00390625 4.65625 0.015625 C 4.132812 0.0234375 3.609375 0.0351562 3.078125 0.046875 C 2.546875 0.0664062 2.101562 0.0820312 1.75 0.09375 C 1.40625 0.101562 1.234375 0.109375 1.234375 0.109375 L 1.234375 -1.234375 L 2.46875 -1.296875 C 3.039062 -1.328125 3.398438 -1.460938 3.546875 -1.703125 C 3.617188 -1.796875 3.675781 -1.988281 3.71875 -2.28125 C 3.769531 -2.570312 3.796875 -2.984375 3.796875 -3.515625 L 3.796875 -11.890625 C 3.796875 -12.585938 3.769531 -13.066406 3.71875 -13.328125 C 3.675781 -13.597656 3.597656 -13.78125 3.484375 -13.875 C 3.453125 -13.925781 3.394531 -13.96875 3.3125 -14 C 3.226562 -14.039062 3.054688 -14.070312 2.796875 -14.09375 L 1.234375 -14.203125 L 1.234375 -15.515625 C 1.929688 -15.609375 2.617188 -15.703125 3.296875 -15.796875 C 3.972656 -15.890625 4.648438 -16.046875 5.328125 -16.265625 Z M 7.859375 -17.0625 "/></g></g></g><g fill="#004aad" fill-opacity="1"><g transform="translate(116.812189, 231.885717)"><g><path d="M 9.640625 -17.0625 C 10.609375 -17.0625 11.59375 -16.941406 12.59375 -16.703125 C 13.59375 -16.460938 14.421875 -16.066406 15.078125 -15.515625 C 15.078125 -15.515625 15.160156 -15.503906 15.328125 -15.484375 C 15.492188 -15.472656 15.757812 -15.46875 16.125 -15.46875 C 16.582031 -15.46875 17.050781 -15.476562 17.53125 -15.5 C 18.019531 -15.53125 18.625 -15.582031 19.34375 -15.65625 L 19.171875 -13.328125 L 16.375 -13.484375 C 16.425781 -13.234375 16.46875 -12.957031 16.5 -12.65625 C 16.539062 -12.363281 16.5625 -11.9375 16.5625 -11.375 C 16.5625 -10.050781 16.164062 -8.9375 15.375 -8.03125 C 14.59375 -7.125 13.609375 -6.429688 12.421875 -5.953125 C 11.242188 -5.484375 10.023438 -5.25 8.765625 -5.25 C 8.546875 -5.25 8.285156 -5.253906 7.984375 -5.265625 C 7.679688 -5.285156 7.421875 -5.304688 7.203125 -5.328125 C 6.921875 -5.160156 6.675781 -4.960938 6.46875 -4.734375 C 6.257812 -4.503906 6.15625 -4.21875 6.15625 -3.875 C 6.15625 -3.5625 6.285156 -3.304688 6.546875 -3.109375 C 6.816406 -2.921875 7.234375 -2.828125 7.796875 -2.828125 C 8.054688 -2.828125 8.460938 -2.832031 9.015625 -2.84375 C 9.578125 -2.851562 10.1875 -2.867188 10.84375 -2.890625 C 11.507812 -2.921875 12.144531 -2.941406 12.75 -2.953125 C 13.351562 -2.960938 13.835938 -2.96875 14.203125 -2.96875 C 15.992188 -2.96875 17.304688 -2.582031 18.140625 -1.8125 C 18.972656 -1.039062 19.390625 0.0195312 19.390625 1.375 C 19.390625 2.800781 19.09375 4.03125 18.5 5.0625 C 17.90625 6.101562 17.109375 6.960938 16.109375 7.640625 C 15.109375 8.316406 13.976562 8.816406 12.71875 9.140625 C 11.457031 9.472656 10.164062 9.640625 8.84375 9.640625 C 7.507812 9.640625 6.238281 9.46875 5.03125 9.125 C 3.820312 8.789062 2.835938 8.226562 2.078125 7.4375 C 1.316406 6.65625 0.9375 5.613281 0.9375 4.3125 C 0.9375 3.6875 1.066406 3.203125 1.328125 2.859375 C 1.597656 2.523438 1.785156 2.320312 1.890625 2.25 L 4.8125 0.5 C 4.132812 0.363281 3.554688 0.117188 3.078125 -0.234375 C 2.597656 -0.585938 2.359375 -1.101562 2.359375 -1.78125 C 2.359375 -2.382812 2.4375 -2.828125 2.59375 -3.109375 C 2.75 -3.398438 2.921875 -3.617188 3.109375 -3.765625 L 5.546875 -5.609375 C 4.410156 -5.929688 3.484375 -6.535156 2.765625 -7.421875 C 2.054688 -8.316406 1.703125 -9.347656 1.703125 -10.515625 C 1.703125 -11.234375 1.835938 -11.972656 2.109375 -12.734375 C 2.390625 -13.492188 2.832031 -14.195312 3.4375 -14.84375 C 4.039062 -15.5 4.851562 -16.03125 5.875 -16.4375 C 6.90625 -16.851562 8.160156 -17.0625 9.640625 -17.0625 Z M 6.15625 -11.375 C 6.15625 -10.601562 6.25 -9.878906 6.4375 -9.203125 C 6.632812 -8.523438 6.957031 -7.972656 7.40625 -7.546875 C 7.851562 -7.128906 8.441406 -6.921875 9.171875 -6.921875 C 11.128906 -6.921875 12.109375 -8.210938 12.109375 -10.796875 C 12.109375 -13.765625 11.09375 -15.25 9.0625 -15.25 C 8.113281 -15.25 7.390625 -14.90625 6.890625 -14.21875 C 6.398438 -13.53125 6.15625 -12.582031 6.15625 -11.375 Z M 4.34375 4.015625 C 4.34375 5.003906 4.632812 5.773438 5.21875 6.328125 C 5.800781 6.890625 6.519531 7.28125 7.375 7.5 C 8.226562 7.71875 9.066406 7.828125 9.890625 7.828125 C 10.660156 7.828125 11.46875 7.660156 12.3125 7.328125 C 13.164062 7.003906 13.882812 6.53125 14.46875 5.90625 C 15.0625 5.28125 15.359375 4.507812 15.359375 3.59375 C 15.359375 2.863281 15.242188 2.273438 15.015625 1.828125 C 14.785156 1.378906 14.382812 1.070312 13.8125 0.90625 C 13.375 0.78125 12.847656 0.6875 12.234375 0.625 C 11.617188 0.570312 10.921875 0.546875 10.140625 0.546875 C 9.710938 0.546875 9.164062 0.554688 8.5 0.578125 C 7.832031 0.597656 7.269531 0.660156 6.8125 0.765625 C 6.132812 0.878906 5.550781 1.242188 5.0625 1.859375 C 4.582031 2.484375 4.34375 3.203125 4.34375 4.015625 Z M 4.34375 4.015625 "/></g></g></g><g fill="#004aad" fill-opacity="1"><g transform="translate(138.372033, 231.885717)"><g><path d="M 5.875 -25.578125 C 6.644531 -25.578125 7.289062 -25.316406 7.8125 -24.796875 C 8.332031 -24.273438 8.59375 -23.617188 8.59375 -22.828125 C 8.59375 -22.078125 8.316406 -21.441406 7.765625 -20.921875 C 7.222656 -20.398438 6.59375 -20.140625 5.875 -20.140625 C 5.144531 -20.140625 4.507812 -20.398438 3.96875 -20.921875 C 3.425781 -21.441406 3.15625 -22.078125 3.15625 -22.828125 C 3.15625 -23.617188 3.410156 -24.273438 3.921875 -24.796875 C 4.441406 -25.316406 5.09375 -25.578125 5.875 -25.578125 Z M 7.859375 -17.0625 L 8.21875 -16.84375 L 8.21875 -3.59375 C 8.21875 -3.175781 8.234375 -2.789062 8.265625 -2.4375 C 8.304688 -2.09375 8.378906 -1.847656 8.484375 -1.703125 C 8.628906 -1.460938 8.988281 -1.328125 9.5625 -1.296875 L 10.796875 -1.234375 L 10.796875 0.109375 C 10.429688 0.0859375 9.953125 0.0664062 9.359375 0.046875 C 8.773438 0.0351562 8.171875 0.0234375 7.546875 0.015625 C 6.929688 0.00390625 6.394531 0 5.9375 0 C 5.601562 0 5.175781 0.00390625 4.65625 0.015625 C 4.132812 0.0234375 3.609375 0.0351562 3.078125 0.046875 C 2.546875 0.0664062 2.101562 0.0820312 1.75 0.09375 C 1.40625 0.101562 1.234375 0.109375 1.234375 0.109375 L 1.234375 -1.234375 L 2.46875 -1.296875 C 3.039062 -1.328125 3.398438 -1.460938 3.546875 -1.703125 C 3.617188 -1.796875 3.675781 -1.988281 3.71875 -2.28125 C 3.769531 -2.570312 3.796875 -2.984375 3.796875 -3.515625 L 3.796875 -11.890625 C 3.796875 -12.585938 3.769531 -13.066406 3.71875 -13.328125 C 3.675781 -13.597656 3.597656 -13.78125 3.484375 -13.875 C 3.453125 -13.925781 3.394531 -13.96875 3.3125 -14 C 3.226562 -14.039062 3.054688 -14.070312 2.796875 -14.09375 L 1.234375 -14.203125 L 1.234375 -15.515625 C 1.929688 -15.609375 2.617188 -15.703125 3.296875 -15.796875 C 3.972656 -15.890625 4.648438 -16.046875 5.328125 -16.265625 Z M 7.859375 -17.0625 "/></g></g></g><g fill="#004aad" fill-opacity="1"><g transform="translate(151.851628, 231.885717)"><g><path d="M 7.46875 -22.90625 L 7.96875 -22.53125 C 7.800781 -21.71875 7.6875 -20.867188 7.625 -19.984375 C 7.5625 -19.097656 7.53125 -18.351562 7.53125 -17.75 L 7.53125 -15.515625 L 11.671875 -15.71875 L 11.375 -13.375 L 7.53125 -13.375 L 7.53125 -4.78125 C 7.53125 -3.882812 7.6875 -3.257812 8 -2.90625 C 8.320312 -2.5625 8.914062 -2.390625 9.78125 -2.390625 C 10.125 -2.390625 10.410156 -2.425781 10.640625 -2.5 C 10.867188 -2.570312 11.140625 -2.691406 11.453125 -2.859375 L 11.734375 -2.171875 L 9.96875 -0.03125 C 9.789062 0.1875 9.5 0.347656 9.09375 0.453125 C 8.6875 0.554688 8.238281 0.609375 7.75 0.609375 C 6.039062 0.609375 4.835938 0.226562 4.140625 -0.53125 C 3.453125 -1.289062 3.109375 -2.453125 3.109375 -4.015625 L 3.109375 -13.375 L 0.796875 -13.21875 L 0.796875 -14.015625 L 3.1875 -15.578125 L 3.1875 -17.71875 C 3.1875 -18.226562 3.171875 -18.738281 3.140625 -19.25 C 3.117188 -19.769531 3.097656 -20.207031 3.078125 -20.5625 C 3.054688 -20.914062 3.046875 -21.09375 3.046875 -21.09375 C 3.835938 -21.375 4.625 -21.675781 5.40625 -22 C 6.195312 -22.332031 6.882812 -22.632812 7.46875 -22.90625 Z M 7.46875 -22.90625 "/></g></g></g><g fill="#004aad" fill-opacity="1"><g transform="translate(165.331222, 231.885717)"><g><path d="M 9.28125 -17.0625 C 10.382812 -17.0625 11.390625 -16.882812 12.296875 -16.53125 C 13.203125 -16.1875 13.921875 -15.640625 14.453125 -14.890625 C 14.984375 -14.140625 15.25 -13.160156 15.25 -11.953125 C 15.25 -11.472656 15.226562 -10.773438 15.1875 -9.859375 C 15.15625 -8.941406 15.140625 -8.09375 15.140625 -7.3125 C 15.140625 -6.882812 15.144531 -6.472656 15.15625 -6.078125 C 15.175781 -5.691406 15.191406 -5.257812 15.203125 -4.78125 C 15.210938 -4.300781 15.226562 -3.660156 15.25 -2.859375 C 15.28125 -2.453125 15.351562 -2.109375 15.46875 -1.828125 C 15.59375 -1.546875 15.847656 -1.382812 16.234375 -1.34375 L 17.3125 -1.234375 L 17.3125 0.109375 C 16.78125 0.0859375 16.25 0.0625 15.71875 0.03125 C 15.1875 0.0078125 14.65625 0 14.125 0 C 13.664062 0 13.144531 0.0078125 12.5625 0.03125 C 11.988281 0.0625 11.410156 0.0859375 10.828125 0.109375 L 10.65625 -0.1875 L 10.828125 -2.421875 L 7.609375 0.078125 C 7.335938 0.296875 7.054688 0.4375 6.765625 0.5 C 6.484375 0.570312 6.050781 0.609375 5.46875 0.609375 C 4.113281 0.609375 3.101562 0.1875 2.4375 -0.65625 C 1.78125 -1.5 1.453125 -2.546875 1.453125 -3.796875 C 1.453125 -4.578125 1.566406 -5.273438 1.796875 -5.890625 C 2.023438 -6.503906 2.332031 -6.976562 2.71875 -7.3125 C 3.175781 -7.726562 3.78125 -8.097656 4.53125 -8.421875 C 5.28125 -8.742188 6.316406 -9.039062 7.640625 -9.3125 L 10.828125 -9.96875 C 10.828125 -11.269531 10.53125 -12.304688 9.9375 -13.078125 C 9.351562 -13.847656 8.410156 -14.234375 7.109375 -14.234375 C 6.710938 -14.234375 6.28125 -14.1875 5.8125 -14.09375 C 5.34375 -14 5.082031 -13.878906 5.03125 -13.734375 L 4.234375 -11.921875 L 3.15625 -12.171875 L 3.15625 -14.671875 L 5.140625 -15.875 C 6.421875 -16.664062 7.800781 -17.0625 9.28125 -17.0625 Z M 5.875 -4.703125 C 5.875 -3.960938 6.0625 -3.414062 6.4375 -3.0625 C 6.8125 -2.707031 7.273438 -2.53125 7.828125 -2.53125 C 8.304688 -2.53125 8.859375 -2.695312 9.484375 -3.03125 C 10.117188 -3.375 10.566406 -3.753906 10.828125 -4.171875 L 10.828125 -8.4375 C 10.441406 -8.34375 9.953125 -8.21875 9.359375 -8.0625 C 8.773438 -7.90625 8.226562 -7.726562 7.71875 -7.53125 C 7.09375 -7.289062 6.628906 -6.953125 6.328125 -6.515625 C 6.023438 -6.085938 5.875 -5.484375 5.875 -4.703125 Z M 5.875 -4.703125 "/></g></g></g><g fill="#004aad" fill-opacity="1"><g transform="translate(184.861949, 231.885717)"><g><path d="M 7.859375 -26.09375 L 8.15625 -25.875 L 8.15625 -3.59375 C 8.15625 -3.175781 8.171875 -2.789062 8.203125 -2.4375 C 8.242188 -2.09375 8.3125 -1.847656 8.40625 -1.703125 C 8.550781 -1.460938 8.914062 -1.328125 9.5 -1.296875 L 10.71875 -1.234375 L 10.71875 0.109375 C 10.363281 0.0859375 9.890625 0.0664062 9.296875 0.046875 C 8.703125 0.0351562 8.097656 0.0234375 7.484375 0.015625 C 6.867188 0.00390625 6.332031 0 5.875 0 C 5.53125 0 5.097656 0.00390625 4.578125 0.015625 C 4.054688 0.0234375 3.53125 0.0351562 3 0.046875 C 2.46875 0.0664062 2.023438 0.0820312 1.671875 0.09375 C 1.328125 0.101562 1.15625 0.109375 1.15625 0.109375 L 1.15625 -1.234375 L 2.390625 -1.296875 C 2.972656 -1.328125 3.335938 -1.460938 3.484375 -1.703125 C 3.554688 -1.796875 3.613281 -1.988281 3.65625 -2.28125 C 3.707031 -2.570312 3.734375 -2.984375 3.734375 -3.515625 L 3.734375 -20.90625 C 3.734375 -21.601562 3.707031 -22.082031 3.65625 -22.34375 C 3.613281 -22.613281 3.53125 -22.800781 3.40625 -22.90625 C 3.382812 -22.945312 3.328125 -22.984375 3.234375 -23.015625 C 3.148438 -23.054688 2.988281 -23.09375 2.75 -23.125 L 0.875 -23.21875 L 0.875 -24.53125 C 1.570312 -24.601562 2.304688 -24.695312 3.078125 -24.8125 C 3.847656 -24.9375 4.570312 -25.097656 5.25 -25.296875 Z M 7.859375 -26.09375 "/></g></g></g><g fill="#004aad" fill-opacity="1"><g transform="translate(198.341543, 231.885717)"><g><path d="M 16.125 -25.1875 C 17.382812 -25.1875 18.492188 -25.125 19.453125 -25 C 20.421875 -24.882812 21.335938 -24.703125 22.203125 -24.453125 C 23.078125 -24.210938 24 -23.890625 24.96875 -23.484375 L 25.1875 -23.078125 C 25.039062 -22.546875 24.90625 -21.832031 24.78125 -20.9375 C 24.664062 -20.050781 24.519531 -18.914062 24.34375 -17.53125 L 22.9375 -17.53125 L 22.75 -20.65625 C 21.882812 -21.570312 20.898438 -22.21875 19.796875 -22.59375 C 18.703125 -22.96875 17.515625 -23.15625 16.234375 -23.15625 C 14.367188 -23.15625 12.742188 -22.75 11.359375 -21.9375 C 9.972656 -21.125 8.90625 -19.96875 8.15625 -18.46875 C 7.40625 -16.976562 7.03125 -15.207031 7.03125 -13.15625 C 7.03125 -10.851562 7.457031 -8.84375 8.3125 -7.125 C 9.175781 -5.414062 10.410156 -4.085938 12.015625 -3.140625 C 13.617188 -2.203125 15.519531 -1.734375 17.71875 -1.734375 C 18.851562 -1.734375 20.0625 -1.910156 21.34375 -2.265625 C 22.625 -2.617188 23.722656 -3.0625 24.640625 -3.59375 L 25.078125 -3.15625 L 24.28125 -1.375 C 23.019531 -0.625 21.675781 -0.109375 20.25 0.171875 C 18.832031 0.460938 17.394531 0.609375 15.9375 0.609375 C 12.988281 0.609375 10.441406 0.0664062 8.296875 -1.015625 C 6.148438 -2.097656 4.492188 -3.632812 3.328125 -5.625 C 2.171875 -7.625 1.59375 -9.976562 1.59375 -12.6875 C 1.59375 -14.707031 1.96875 -16.5 2.71875 -18.0625 C 3.46875 -19.625 4.507812 -20.9375 5.84375 -22 C 7.1875 -23.0625 8.734375 -23.859375 10.484375 -24.390625 C 12.234375 -24.921875 14.113281 -25.1875 16.125 -25.1875 Z M 16.125 -25.1875 "/></g></g></g><g fill="#004aad" fill-opacity="1"><g transform="translate(225.916287, 231.885717)"><g><path d="M 10.328125 -17.0625 C 13.109375 -17.0625 15.203125 -16.320312 16.609375 -14.84375 C 18.023438 -13.375 18.734375 -11.289062 18.734375 -8.59375 C 18.734375 -5.6875 17.957031 -3.425781 16.40625 -1.8125 C 14.863281 -0.195312 12.582031 0.609375 9.5625 0.609375 C 6.957031 0.609375 4.953125 -0.160156 3.546875 -1.703125 C 2.148438 -3.242188 1.453125 -5.394531 1.453125 -8.15625 C 1.453125 -10.976562 2.210938 -13.164062 3.734375 -14.71875 C 5.253906 -16.28125 7.453125 -17.0625 10.328125 -17.0625 Z M 6.375 -9.203125 C 6.375 -8.304688 6.421875 -7.382812 6.515625 -6.4375 C 6.617188 -5.5 6.800781 -4.625 7.0625 -3.8125 C 7.332031 -3.007812 7.734375 -2.359375 8.265625 -1.859375 C 8.796875 -1.367188 9.492188 -1.125 10.359375 -1.125 C 11.234375 -1.125 11.90625 -1.347656 12.375 -1.796875 C 12.84375 -2.242188 13.179688 -2.8125 13.390625 -3.5 C 13.597656 -4.1875 13.71875 -4.890625 13.75 -5.609375 C 13.789062 -6.335938 13.8125 -6.96875 13.8125 -7.5 C 13.8125 -10.320312 13.472656 -12.332031 12.796875 -13.53125 C 12.117188 -14.726562 11.175781 -15.328125 9.96875 -15.328125 C 8.945312 -15.328125 8.175781 -15.019531 7.65625 -14.40625 C 7.144531 -13.789062 6.800781 -13.015625 6.625 -12.078125 C 6.457031 -11.148438 6.375 -10.191406 6.375 -9.203125 Z M 6.375 -9.203125 "/></g></g></g><g fill="#004aad" fill-opacity="1"><g transform="translate(247.47613, 231.885717)"><g><path d="M 18.328125 -11.453125 L 18.328125 -3.546875 C 18.328125 -3.140625 18.34375 -2.765625 18.375 -2.421875 C 18.414062 -2.085938 18.488281 -1.847656 18.59375 -1.703125 C 18.738281 -1.460938 19.097656 -1.328125 19.671875 -1.296875 L 20.90625 -1.234375 L 20.90625 0.109375 C 20.28125 0.0859375 19.484375 0.0625 18.515625 0.03125 C 17.546875 0.0078125 16.722656 0 16.046875 0 C 15.296875 0 14.519531 0.0078125 13.71875 0.03125 C 12.925781 0.0625 12.179688 0.0859375 11.484375 0.109375 L 11.484375 -1.234375 L 12.578125 -1.296875 C 12.910156 -1.328125 13.15625 -1.378906 13.3125 -1.453125 C 13.46875 -1.523438 13.582031 -1.609375 13.65625 -1.703125 C 13.726562 -1.796875 13.785156 -1.972656 13.828125 -2.234375 C 13.878906 -2.503906 13.90625 -2.929688 13.90625 -3.515625 L 13.90625 -9.890625 C 13.90625 -10.660156 13.832031 -11.289062 13.6875 -11.78125 C 13.550781 -12.28125 13.347656 -12.691406 13.078125 -13.015625 C 12.523438 -13.640625 11.726562 -13.953125 10.6875 -13.953125 C 9.988281 -13.953125 9.335938 -13.671875 8.734375 -13.109375 C 8.148438 -12.578125 7.859375 -12.035156 7.859375 -11.484375 L 7.859375 -3.546875 C 7.859375 -3.140625 7.875 -2.765625 7.90625 -2.421875 C 7.945312 -2.085938 8.015625 -1.847656 8.109375 -1.703125 C 8.253906 -1.460938 8.617188 -1.328125 9.203125 -1.296875 L 10.140625 -1.234375 L 10.140625 0.109375 C 9.609375 0.0859375 8.882812 0.0625 7.96875 0.03125 C 7.050781 0.0078125 6.253906 0 5.578125 0 C 4.898438 0 4.125 0.0078125 3.25 0.03125 C 2.382812 0.0625 1.59375 0.0859375 0.875 0.109375 L 0.875 -1.234375 L 2.109375 -1.296875 C 2.679688 -1.328125 3.039062 -1.460938 3.1875 -1.703125 C 3.257812 -1.796875 3.316406 -1.972656 3.359375 -2.234375 C 3.410156 -2.503906 3.4375 -2.929688 3.4375 -3.515625 L 3.4375 -11.890625 C 3.4375 -12.585938 3.410156 -13.066406 3.359375 -13.328125 C 3.316406 -13.597656 3.234375 -13.78125 3.109375 -13.875 C 3.085938 -13.925781 3.035156 -13.96875 2.953125 -14 C 2.867188 -14.039062 2.707031 -14.070312 2.46875 -14.09375 L 0.875 -14.203125 L 0.875 -15.515625 C 2.101562 -15.554688 3.257812 -15.734375 4.34375 -16.046875 C 5.4375 -16.359375 6.535156 -16.695312 7.640625 -17.0625 L 7.859375 -16.84375 L 7.859375 -14.125 L 10.765625 -16.375 C 11.128906 -16.644531 11.515625 -16.828125 11.921875 -16.921875 C 12.328125 -17.015625 12.859375 -17.0625 13.515625 -17.0625 C 14.578125 -17.0625 15.523438 -16.828125 16.359375 -16.359375 C 17.191406 -15.890625 17.78125 -15.144531 18.125 -14.125 L 21.015625 -16.375 C 21.347656 -16.644531 21.710938 -16.828125 22.109375 -16.921875 C 22.515625 -17.015625 23.066406 -17.0625 23.765625 -17.0625 C 25.609375 -17.0625 26.910156 -16.570312 27.671875 -15.59375 C 28.429688 -14.613281 28.8125 -12.921875 28.8125 -10.515625 L 28.8125 -3.4375 C 28.8125 -2.90625 28.832031 -2.515625 28.875 -2.265625 C 28.925781 -2.015625 28.976562 -1.835938 29.03125 -1.734375 C 29.125 -1.585938 29.269531 -1.484375 29.46875 -1.421875 C 29.675781 -1.367188 29.898438 -1.328125 30.140625 -1.296875 L 31.3125 -1.234375 L 31.3125 0.109375 C 30.726562 0.0859375 30.109375 0.0625 29.453125 0.03125 C 28.804688 0.0078125 28.3125 0 27.96875 0 C 27.269531 0 26.601562 0.0078125 25.96875 0.03125 C 25.34375 0.0625 24.816406 0.0859375 24.390625 0.109375 L 24.390625 -9.75 C 24.390625 -10.207031 24.351562 -10.75 24.28125 -11.375 C 24.207031 -12 23.960938 -12.546875 23.546875 -13.015625 C 23.328125 -13.253906 23.03125 -13.46875 22.65625 -13.65625 C 22.289062 -13.851562 21.789062 -13.953125 21.15625 -13.953125 C 20.457031 -13.953125 19.804688 -13.671875 19.203125 -13.109375 C 18.617188 -12.578125 18.328125 -12.023438 18.328125 -11.453125 Z M 18.328125 -11.453125 "/></g></g></g><g fill="#004aad" fill-opacity="1"><g transform="translate(281.102016, 231.885717)"><g><path d="M 8.046875 -12 L 8.046875 -3.84375 C 8.910156 -2.507812 10.140625 -1.84375 11.734375 -1.84375 C 12.796875 -1.84375 13.632812 -2.15625 14.25 -2.78125 C 14.875 -3.414062 15.316406 -4.210938 15.578125 -5.171875 C 15.847656 -6.140625 15.984375 -7.144531 15.984375 -8.1875 C 15.984375 -9.757812 15.617188 -11.085938 14.890625 -12.171875 C 14.171875 -13.265625 13.023438 -13.8125 11.453125 -13.8125 C 10.796875 -13.8125 10.144531 -13.644531 9.5 -13.3125 C 8.863281 -12.988281 8.378906 -12.550781 8.046875 -12 Z M 1.046875 -14.203125 L 1.046875 -15.515625 C 1.753906 -15.609375 2.4375 -15.703125 3.09375 -15.796875 C 3.757812 -15.890625 4.40625 -16.035156 5.03125 -16.234375 L 7.6875 -17.0625 L 8.046875 -16.84375 L 8.046875 -13.875 L 10.25 -15.65625 C 10.757812 -16.0625 11.296875 -16.394531 11.859375 -16.65625 C 12.429688 -16.925781 13.148438 -17.0625 14.015625 -17.0625 C 15.328125 -17.0625 16.472656 -16.757812 17.453125 -16.15625 C 18.429688 -15.550781 19.191406 -14.742188 19.734375 -13.734375 C 20.273438 -12.722656 20.546875 -11.585938 20.546875 -10.328125 C 20.546875 -9.429688 20.414062 -8.492188 20.15625 -7.515625 C 19.90625 -6.535156 19.578125 -5.707031 19.171875 -5.03125 C 18.878906 -4.550781 18.597656 -4.15625 18.328125 -3.84375 C 18.066406 -3.53125 17.753906 -3.210938 17.390625 -2.890625 C 17.023438 -2.578125 16.539062 -2.191406 15.9375 -1.734375 C 14.976562 -0.984375 14.128906 -0.40625 13.390625 0 C 12.648438 0.40625 11.929688 0.609375 11.234375 0.609375 C 10.703125 0.609375 10.140625 0.535156 9.546875 0.390625 C 8.953125 0.253906 8.453125 0.125 8.046875 0 L 8.046875 5.65625 C 8.046875 6.0625 8.0625 6.4375 8.09375 6.78125 C 8.132812 7.132812 8.203125 7.382812 8.296875 7.53125 C 8.367188 7.632812 8.484375 7.722656 8.640625 7.796875 C 8.796875 7.867188 9.046875 7.914062 9.390625 7.9375 L 10.984375 8 L 10.984375 9.34375 C 10.203125 9.320312 9.304688 9.296875 8.296875 9.265625 C 7.285156 9.242188 6.441406 9.234375 5.765625 9.234375 C 5.421875 9.234375 4.988281 9.238281 4.46875 9.25 C 3.957031 9.269531 3.4375 9.285156 2.90625 9.296875 C 2.375 9.304688 1.929688 9.316406 1.578125 9.328125 C 1.222656 9.335938 1.046875 9.34375 1.046875 9.34375 L 1.046875 8 L 2.28125 7.9375 C 2.863281 7.914062 3.226562 7.78125 3.375 7.53125 C 3.445312 7.4375 3.503906 7.253906 3.546875 6.984375 C 3.597656 6.722656 3.625 6.289062 3.625 5.6875 L 3.625 -11.890625 C 3.625 -12.585938 3.597656 -13.066406 3.546875 -13.328125 C 3.503906 -13.597656 3.421875 -13.78125 3.296875 -13.875 C 3.273438 -13.925781 3.21875 -13.96875 3.125 -14 C 3.039062 -14.039062 2.867188 -14.070312 2.609375 -14.09375 Z M 1.046875 -14.203125 "/></g></g></g></svg>